<svg width="19" height="17" viewBox="0 0 19 17" fill="none" xmlns="http://www.w3.org/2000/svg">
<path d="M16.1369 8.86812L9.26191 15.6771L2.38691 8.86812C1.93344 8.42685 1.57625 7.89647 1.33783 7.31037C1.09941 6.72428 0.984928 6.09516 1.00159 5.46265C1.01825 4.83013 1.1657 4.20791 1.43464 3.63518C1.70359 3.06245 2.0882 2.55161 2.56428 2.13482C3.04035 1.71804 3.59756 1.40434 4.20082 1.21348C4.80409 1.02262 5.44034 0.958742 6.0695 1.02586C6.69867 1.09297 7.30712 1.28963 7.85655 1.60345C8.40598 1.91727 8.88448 2.34146 9.26191 2.84929C9.64099 2.34514 10.12 1.92467 10.6691 1.61418C11.2181 1.30369 11.8254 1.10987 12.4528 1.04485C13.0802 0.979831 13.7142 1.04501 14.3153 1.23632C14.9163 1.42762 15.4714 1.74092 15.9458 2.15662C16.4202 2.57232 16.8037 3.08147 17.0723 3.65219C17.3409 4.22292 17.4888 4.84293 17.5067 5.47344C17.5246 6.10395 17.4122 6.73137 17.1765 7.31644C16.9408 7.9015 16.5869 8.43163 16.1369 8.87362" stroke="#747474" stroke-width="2" stroke-linecap="round" stroke-linejoin="round"/>
</svg>
