<svg width="32" height="26" viewBox="0 0 32 26" fill="none" xmlns="http://www.w3.org/2000/svg">
<path opacity="0.45" d="M18.667 0C25.6624 0.00018348 31.333 5.67151 31.333 12.667C31.3328 19.6623 25.6623 25.3328 18.667 25.333H12.667C5.67151 25.333 0.000185031 19.6624 0 12.667C0 5.67139 5.67139 0 12.667 0H18.667ZM9.34961 17.1377C9.01879 17.081 8.64192 17.1033 8.25586 17.1924L7.97754 17.6738C7.96607 17.6937 7.62228 18.2895 7.61914 18.2949C7.59005 18.3453 7.561 18.3958 7.53223 18.4463C7.50531 18.4936 7.4781 18.541 7.45215 18.5889C7.39561 18.6932 7.34211 18.8008 7.30176 18.9131C7.26088 19.0269 7.23569 19.1405 7.22949 19.2617C7.22334 19.3809 7.23355 19.5047 7.26465 19.6201C7.29577 19.7354 7.34194 19.851 7.40723 19.9512C7.4736 20.0531 7.54803 20.1466 7.64258 20.2227C7.73558 20.2975 7.77387 20.3178 7.80859 20.3379C7.84327 20.3579 7.88009 20.3808 7.99121 20.4238C8.10435 20.4677 8.22225 20.4847 8.34375 20.4912C8.46301 20.4977 8.58581 20.4799 8.70117 20.4492C8.81665 20.4184 8.92911 20.3657 9.0293 20.3008C9.13121 20.2348 9.21776 20.1568 9.2959 20.0645C9.37289 19.9734 9.4389 19.8726 9.50098 19.7715C9.52928 19.7253 9.55661 19.6785 9.58398 19.6318C9.61328 19.5818 9.64289 19.5307 9.67188 19.4805C9.6822 19.4626 10.0258 18.8679 10.0312 18.8584L10.585 17.8984C10.2626 17.4283 9.78155 17.2119 9.34961 17.1377ZM16.9189 8.22168C16.589 8.55051 16.2646 9.07313 16.1309 9.60254C15.9341 10.3813 15.9574 11.2973 16.4707 12.1865L16.749 12.6689L17.6797 14.2812L19.043 16.6436L20.3223 18.8584C20.3288 18.8697 20.6755 19.4698 20.6816 19.4805C20.7106 19.5307 20.7393 19.5818 20.7686 19.6318C20.796 19.6787 20.8242 19.7252 20.8525 19.7715C20.9146 19.8726 20.9806 19.9734 21.0576 20.0645C21.1356 20.1567 21.2215 20.2349 21.3232 20.3008C21.4234 20.3657 21.5359 20.4184 21.6514 20.4492C21.7667 20.4799 21.8895 20.4976 22.0088 20.4912C22.1302 20.4847 22.2482 20.4676 22.3613 20.4238C22.4728 20.3806 22.5102 20.3579 22.5449 20.3379C22.5796 20.3179 22.6173 20.2972 22.71 20.2227C22.8045 20.1466 22.8789 20.0531 22.9453 19.9512C23.0106 19.851 23.0568 19.7354 23.0879 19.6201C23.119 19.5047 23.1292 19.3809 23.123 19.2617C23.1168 19.1405 23.0917 19.0269 23.0508 18.9131C23.0104 18.8009 22.9569 18.6932 22.9004 18.5889C22.8744 18.5411 22.8472 18.4935 22.8203 18.4463C22.7916 18.3958 22.7625 18.3453 22.7334 18.2949C22.7302 18.2895 22.3851 17.6913 22.375 17.6738L21.7803 16.6436H22.998C23.056 16.6436 23.1139 16.643 23.1719 16.6426C23.2261 16.6422 23.2807 16.6421 23.335 16.6406C23.4532 16.6374 23.5725 16.6304 23.6895 16.6094C23.808 16.5879 23.9186 16.553 24.0264 16.498C24.1322 16.444 24.2334 16.3732 24.3174 16.2891C24.4014 16.2048 24.4783 16.1072 24.5322 16.001C24.5871 15.8929 24.6308 15.7825 24.6494 15.6631C24.6676 15.5459 24.667 15.5027 24.667 15.4629C24.667 15.4229 24.6676 15.3793 24.6494 15.2617C24.6308 15.1423 24.5871 15.0319 24.5322 14.9238C24.4783 14.8176 24.4014 14.7201 24.3174 14.6357C24.2334 14.5516 24.1321 14.4808 24.0264 14.4268C23.9187 14.3718 23.808 14.3368 23.6895 14.3154C23.5725 14.2944 23.4532 14.2874 23.335 14.2842C23.2807 14.2827 23.2261 14.2826 23.1719 14.2822C23.1143 14.2819 23.0566 14.2813 22.999 14.2812H20.417L18.8018 11.4844L16.9189 8.22168ZM16.8076 3.66797C16.6882 3.66151 16.5647 3.67923 16.4492 3.70996C16.3339 3.7407 16.2221 3.79358 16.1221 3.8584C16.0202 3.92442 15.9336 4.00331 15.8555 4.0957C15.7786 4.18669 15.7124 4.28662 15.6504 4.3877C15.6219 4.43415 15.5939 4.48132 15.5664 4.52832C15.537 4.57852 15.5086 4.62931 15.4795 4.67969C15.4763 4.68517 15.4729 4.69084 15.4697 4.69629L15.1768 5.2041L14.8838 4.69629C14.8807 4.69087 14.8772 4.68514 14.874 4.67969C14.8449 4.62921 14.8156 4.57862 14.7861 4.52832C14.7586 4.48133 14.7306 4.43413 14.7021 4.3877C14.6401 4.28663 14.574 4.18667 14.4971 4.0957C14.4189 4.00336 14.3333 3.9244 14.2314 3.8584C14.1313 3.79344 14.0188 3.74072 13.9033 3.70996C13.788 3.67927 13.6652 3.66159 13.5459 3.66797C13.4243 3.67448 13.3056 3.69248 13.1924 3.73633C13.0813 3.77939 13.0445 3.80125 13.0098 3.82129C12.975 3.84138 12.9369 3.86258 12.8438 3.9375C12.7494 4.01359 12.6757 4.1071 12.6094 4.20898C12.5441 4.30915 12.4979 4.42473 12.4668 4.54004C12.4358 4.65521 12.4255 4.77848 12.4316 4.89746C12.4379 5.01873 12.462 5.13319 12.5029 5.24707C12.5433 5.35915 12.5978 5.46603 12.6543 5.57031C12.6802 5.61806 12.7066 5.66569 12.7334 5.71289C12.7621 5.76326 12.7913 5.81407 12.8203 5.86426C12.8236 5.87002 12.8267 5.87608 12.8301 5.88184L13.8076 7.57422L11.5508 11.4844L9.93555 14.2812H7.33496C7.27719 14.2812 7.2189 14.2819 7.16113 14.2822C7.10708 14.2826 7.05305 14.2828 6.99902 14.2842C6.88076 14.2874 6.76054 14.2943 6.64355 14.3154C6.52506 14.3368 6.4143 14.3718 6.30664 14.4268C6.20082 14.4808 6.09961 14.5515 6.01562 14.6357C5.93161 14.7201 5.85468 14.8176 5.80078 14.9238C5.74593 15.0319 5.70214 15.1423 5.68359 15.2617C5.66537 15.3794 5.66699 15.4229 5.66699 15.4629C5.66698 15.5027 5.66544 15.5459 5.68359 15.6631C5.70215 15.7825 5.74593 15.893 5.80078 16.001C5.85468 16.1072 5.93163 16.2048 6.01562 16.2891C6.09959 16.3733 6.20086 16.444 6.30664 16.498C6.41426 16.553 6.5251 16.5879 6.64355 16.6094C6.76052 16.6305 6.88077 16.6374 6.99902 16.6406C7.05305 16.6421 7.10708 16.6423 7.16113 16.6426C7.21924 16.643 7.27785 16.6436 7.33594 16.6436H17.7188C18.0329 15.8395 17.7496 15.2261 17.4746 14.8848C17.1372 14.4661 16.6601 14.2813 16.1016 14.2812H12.6729L13.6035 12.6689L15.1768 9.94531L16.5449 7.57422L17.5225 5.88184C17.5258 5.87611 17.5289 5.86999 17.5322 5.86426C17.5612 5.81405 17.5904 5.76328 17.6191 5.71289C17.646 5.66563 17.6733 5.61813 17.6992 5.57031C17.7557 5.46613 17.8093 5.35903 17.8496 5.24707C17.8906 5.13319 17.9156 5.01874 17.9219 4.89746C17.928 4.77855 17.9176 4.65515 17.8867 4.54004C17.8556 4.42486 17.8093 4.30907 17.7441 4.20898C17.6778 4.10704 17.6032 4.01361 17.5088 3.9375C17.4157 3.86262 17.3775 3.84137 17.3428 3.82129C17.3081 3.80127 17.2711 3.77935 17.1602 3.73633C17.047 3.69251 16.9291 3.67449 16.8076 3.66797Z" fill="black"/>
</svg>
