<svg width="57" height="23" viewBox="0 0 57 23" fill="none" xmlns="http://www.w3.org/2000/svg">
<path d="M1.5 9.5459C0.671573 9.5459 7.24234e-08 10.2175 0 11.0459C-7.24234e-08 11.8743 0.671573 12.5459 1.5 12.5459L1.5 11.0459L1.5 9.5459ZM56.5607 12.1066C57.1465 11.5208 57.1465 10.571 56.5607 9.98524L47.0147 0.439301C46.4289 -0.146486 45.4792 -0.146486 44.8934 0.439301C44.3076 1.02509 44.3076 1.97483 44.8934 2.56062L53.3787 11.0459L44.8934 19.5312C44.3076 20.117 44.3076 21.0667 44.8934 21.6525C45.4792 22.2383 46.4289 22.2383 47.0147 21.6525L56.5607 12.1066ZM1.5 11.0459L1.5 12.5459L55.5 12.5459L55.5 11.0459L55.5 9.5459L1.5 9.5459L1.5 11.0459Z" fill="#BCBCBC"/>
</svg>
