<svg width="60" height="23" viewBox="0 0 60 23" fill="none" xmlns="http://www.w3.org/2000/svg">
<path d="M1.5 9.5459C0.671573 9.5459 7.24234e-08 10.2175 0 11.0459C-7.24234e-08 11.8743 0.671573 12.5459 1.5 12.5459L1.5 11.0459L1.5 9.5459ZM59.5607 12.1066C60.1464 11.5208 60.1464 10.571 59.5607 9.98524L50.0147 0.439301C49.4289 -0.146486 48.4792 -0.146486 47.8934 0.439301C47.3076 1.02509 47.3076 1.97483 47.8934 2.56062L56.3787 11.0459L47.8934 19.5312C47.3076 20.117 47.3076 21.0667 47.8934 21.6525C48.4792 22.2383 49.4289 22.2383 50.0147 21.6525L59.5607 12.1066ZM1.5 11.0459L1.5 12.5459L58.5 12.5459L58.5 11.0459L58.5 9.5459L1.5 9.5459L1.5 11.0459Z" fill="#BCBCBC"/>
</svg>
