<svg width="63" height="23" viewBox="0 0 63 23" fill="none" xmlns="http://www.w3.org/2000/svg">
<path d="M1.5 9.5459C0.671573 9.5459 7.24234e-08 10.2175 0 11.0459C-7.24234e-08 11.8743 0.671573 12.5459 1.5 12.5459L1.5 11.0459L1.5 9.5459ZM62.5607 12.1066C63.1465 11.5208 63.1465 10.571 62.5607 9.98524L53.0147 0.439301C52.4289 -0.146486 51.4792 -0.146486 50.8934 0.439301C50.3076 1.02509 50.3076 1.97483 50.8934 2.56062L59.3787 11.0459L50.8934 19.5312C50.3076 20.117 50.3076 21.0667 50.8934 21.6525C51.4792 22.2383 52.4289 22.2383 53.0147 21.6525L62.5607 12.1066ZM1.5 11.0459L1.5 12.5459L61.5 12.5459L61.5 11.0459L61.5 9.5459L1.5 9.5459L1.5 11.0459Z" fill="#BCBCBC"/>
</svg>
