<svg width="31" height="25" viewBox="0 0 31 25" fill="none" xmlns="http://www.w3.org/2000/svg">
<path opacity="0.45" fill-rule="evenodd" clip-rule="evenodd" d="M26.8477 24.21C29.501 24.21 30.834 22.8896 30.834 20.2744V6.98242C30.834 4.36719 29.501 3.05957 26.8477 3.05957H23.3896C22.3994 3.05957 22.082 2.85645 21.5234 2.22168L20.4951 1.0791C19.8604 0.380859 19.2129 0 17.9053 0H12.8398C11.5322 0 10.8848 0.380859 10.25 1.0791L9.23438 2.22168C8.67578 2.84375 8.3584 3.05957 7.36816 3.05957H3.98633C1.33301 3.05957 0 4.36719 0 6.98242V20.2744C0 22.8896 1.33301 24.21 3.98633 24.21H26.8477ZM15.3486 19.9209C11.4732 19.9209 8.35499 16.8112 8.35499 12.9209C8.35499 9.03059 11.4732 5.9209 15.3486 5.9209C19.2368 5.9209 22.355 9.03059 22.355 12.9209C22.355 16.8112 19.2368 19.9209 15.3486 19.9209ZM15.349 17.6709C17.9738 17.6709 20.105 15.5544 20.105 12.9209C20.105 10.2874 17.9738 8.1709 15.349 8.1709C12.7241 8.1709 10.605 10.2874 10.605 12.9209C10.605 15.5544 12.7362 17.6709 15.349 17.6709Z" fill="black"/>
</svg>
