<svg width="27" height="27" viewBox="0 0 27 27" fill="none" xmlns="http://www.w3.org/2000/svg">
<path opacity="0.45" d="M13.5 0C20.9558 0 27 6.04416 27 13.5C27 20.9558 20.9558 27 13.5 27C6.04416 27 0 20.9558 0 13.5C0 6.04416 6.04416 0 13.5 0ZM11.667 6C11.1147 6 10.667 6.44772 10.667 7V20C10.667 20.5523 11.1147 21 11.667 21C12.2191 20.9998 12.667 20.5522 12.667 20V7C12.667 6.44785 12.2191 6.00021 11.667 6ZM18.3301 8C17.7778 8 17.3301 8.44771 17.3301 9V18.5C17.3301 19.0523 17.7778 19.5 18.3301 19.5C18.8823 19.5 19.3301 19.0523 19.3301 18.5V9C19.3301 8.44774 18.8823 8.00004 18.3301 8ZM15 8.75C14.4477 8.75 14 9.19772 14 9.75V17.75C14 18.3023 14.4477 18.75 15 18.75C15.5523 18.75 16 18.3023 16 17.75V9.75C16 9.19771 15.5523 8.75 15 8.75ZM8.5 9C7.94772 9 7.5 9.44771 7.5 10V17C7.5 17.5523 7.94772 18 8.5 18C9.05229 18 9.5 17.5523 9.5 17V10C9.5 9.44771 9.05229 9 8.5 9ZM5.33301 12C4.78086 12.0002 4.33301 12.4478 4.33301 13V14.5C4.33301 15.0522 4.78086 15.4998 5.33301 15.5C5.88529 15.5 6.33301 15.0523 6.33301 14.5V13C6.33301 12.4477 5.88529 12 5.33301 12ZM21.667 12C21.1147 12 20.667 12.4477 20.667 13V14.5C20.667 15.0523 21.1147 15.5 21.667 15.5C22.2191 15.4998 22.667 15.0522 22.667 14.5V13C22.667 12.4478 22.2191 12.0002 21.667 12Z" fill="black"/>
</svg>
