<svg width="24" height="25" viewBox="0 0 24 25" fill="none" xmlns="http://www.w3.org/2000/svg">
<path d="M20.9532 12.8022L11.8907 23.0157L2.8282 12.8022C2.23045 12.1403 1.75961 11.3447 1.44532 10.4656C1.13104 9.58641 0.980133 8.64274 1.0021 7.69397C1.02406 6.74519 1.21842 5.81187 1.57294 4.95277C1.92745 4.09367 2.43445 3.32741 3.062 2.70223C3.68955 2.07705 4.42406 1.60651 5.21927 1.32022C6.01448 1.03394 6.85317 0.938113 7.68252 1.03879C8.51188 1.13946 9.31393 1.43445 10.0382 1.90518C10.7624 2.37591 11.3932 3.01219 11.8907 3.77393C12.3904 3.01772 13.0219 2.387 13.7456 1.92127C14.4694 1.45553 15.2698 1.1648 16.0968 1.06727C16.9239 0.969747 17.7597 1.06752 18.552 1.35447C19.3443 1.64143 20.076 2.11139 20.7013 2.73493C21.3267 3.35848 21.8322 4.1222 22.1862 4.97829C22.5402 5.83437 22.7352 6.7644 22.7588 7.71016C22.7825 8.65592 22.6343 9.59705 22.3236 10.4747C22.0129 11.3523 21.5464 12.1474 20.9532 12.8104" stroke="#747474" stroke-width="2" stroke-linecap="round" stroke-linejoin="round"/>
</svg>
