<svg width="3" height="4" viewBox="0 0 3 4" fill="none" xmlns="http://www.w3.org/2000/svg">
<path d="M1.66488 0.5C1.66302 0.54371 1.64532 0.586421 1.63586 0.62896C1.63084 0.65158 1.6277 0.675283 1.61974 0.697125C1.61347 0.714356 1.60261 0.729462 1.59948 0.747788C1.59595 0.768459 1.58568 0.783755 1.58106 0.803518C1.57664 0.822406 1.57839 0.841416 1.57691 0.860629C1.57054 0.943429 1.57369 1.02716 1.57369 1.11026C1.57369 1.12812 1.57611 1.14841 1.57277 1.16599C1.56824 1.18978 1.55678 1.20921 1.54882 1.23185C1.53284 1.27727 1.48917 1.31583 1.47927 1.36311C1.46346 1.43866 1.43198 1.51141 1.39775 1.58189C1.37578 1.62712 1.3664 1.6799 1.34156 1.72374C1.31078 1.77806 1.28692 1.84461 1.24046 1.88863C1.21759 1.91029 1.2055 1.94733 1.18519 1.97153C1.1669 1.99333 1.14343 2.00987 1.12463 2.03118C1.11676 2.04009 1.11172 2.05114 1.10367 2.06042C1.09622 2.06902 1.09403 2.0824 1.09308 2.09335C1.09188 2.1072 1.08497 2.11178 1.0811 2.12467C1.07165 2.15618 1.07386 2.18467 1.05393 2.21379C1.03868 2.23608 1.02743 2.26758 1.00787 2.2861C0.9825 2.31014 0.973752 2.34854 0.94869 2.37499C0.93186 2.39276 0.927367 2.41858 0.912535 2.43809C0.893209 2.46352 0.884983 2.49387 0.864635 2.51915C0.832679 2.55886 0.796166 2.5997 0.75617 2.63153C0.747572 2.63838 0.729754 2.65963 0.717712 2.65963C0.693158 2.65963 0.674706 2.60174 0.66797 2.58455C0.652355 2.54471 0.647887 2.50199 0.641027 2.45997C0.637986 2.44135 0.622177 2.4049 0.639185 2.38789C0.660438 2.36664 0.675741 2.34201 0.695144 2.32018C0.712945 2.30016 0.738989 2.29005 0.755479 2.26975C0.775338 2.24531 0.78175 2.2202 0.79601 2.19168C0.804058 2.17559 0.803504 2.15739 0.811209 2.14102C0.819712 2.12295 0.832103 2.10082 0.835849 2.08115C0.839107 2.06404 0.849561 2.03926 0.858417 2.0245C0.873983 1.99855 0.891839 1.97377 0.905396 1.94666C0.910994 1.93546 0.90864 1.9243 0.911383 1.91258C0.914879 1.89764 0.924725 1.88463 0.928885 1.86928C0.946234 1.80531 0.986595 1.75172 1.00488 1.68874C1.01206 1.664 1.027 1.6447 1.0339 1.61827C1.03831 1.60136 1.05048 1.58952 1.05462 1.57221C1.05719 1.56147 1.06097 1.54858 1.06568 1.53859C1.07613 1.51637 1.07501 1.49004 1.07949 1.46582C1.08323 1.44567 1.0905 1.42569 1.09607 1.40595C1.10198 1.38503 1.10214 1.36349 1.10759 1.34239C1.11365 1.31889 1.11093 1.29387 1.1145 1.27008C1.11746 1.25029 1.1264 1.21542 1.13845 1.19961C1.16066 1.17046 1.16087 1.11675 1.17391 1.08262C1.18736 1.04741 1.1898 1.00886 1.20385 0.973469C1.21188 0.953236 1.21304 0.931901 1.22135 0.911752C1.22888 0.893502 1.23997 0.866718 1.23793 0.846351C1.23778 0.844832 1.20901 0.888256 1.20339 0.897014C1.1954 0.909452 1.19292 0.924386 1.18635 0.937544C1.17935 0.951529 1.16918 0.963572 1.16147 0.977154C1.14019 1.0147 1.12095 1.05619 1.09561 1.09092C1.08384 1.10705 1.07019 1.13099 1.06775 1.15056C1.06502 1.17242 1.06241 1.1955 1.05923 1.2178C1.05268 1.26365 1.02653 1.30681 1.02653 1.35413C1.02653 1.38422 1.02653 1.41431 1.02653 1.44441C1.02653 1.46732 1.01712 1.48036 1.01386 1.50152C1.01206 1.51321 1.00761 1.52432 1.0058 1.53606C1.00309 1.55366 0.988384 1.5656 0.983002 1.58235C0.97895 1.59495 0.980293 1.61306 0.972409 1.62357C0.964429 1.63421 0.961995 1.6439 0.958131 1.65627C0.948228 1.68796 0.944086 1.72267 0.929806 1.75253C0.913844 1.7859 0.891137 1.81314 0.881446 1.84948C0.877481 1.86435 0.870248 1.87287 0.863253 1.88633C0.856887 1.89857 0.857584 1.91251 0.851739 1.92478C0.841327 1.94665 0.826276 1.96449 0.823644 1.98949C0.822318 2.00209 0.818306 2.0121 0.815124 2.02404C0.806636 2.05586 0.795714 2.08768 0.785647 2.11914C0.771098 2.16461 0.740405 2.20434 0.736596 2.25386C0.733616 2.2926 0.730045 2.33135 0.726003 2.37016C0.722186 2.40679 0.704706 2.43646 0.697447 2.47194C0.694054 2.48853 0.691249 2.50297 0.680636 2.51662C0.672085 2.52761 0.67077 2.54397 0.661753 2.556C0.631661 2.59612 0.589175 2.61826 0.549143 2.64673C0.529107 2.66098 0.505057 2.6804 0.500092 2.70522" stroke="white" stroke-linecap="round"/>
</svg>
