<svg width="31" height="27" viewBox="0 0 31 27" fill="none" xmlns="http://www.w3.org/2000/svg">
<path d="M28.1538 24.9192L19.4359 17.2794M2 10.913C2 12.0835 2.26308 13.2425 2.77422 14.3239C3.28535 15.4053 4.03454 16.3878 4.979 17.2155C5.92346 18.0431 7.04469 18.6996 8.27869 19.1476C9.51269 19.5955 10.8353 19.826 12.1709 19.826C13.5066 19.826 14.8292 19.5955 16.0632 19.1476C17.2972 18.6996 18.4184 18.0431 19.3629 17.2155C20.3073 16.3878 21.0565 15.4053 21.5677 14.3239C22.0788 13.2425 22.3419 12.0835 22.3419 10.913C22.3419 9.74254 22.0788 8.58353 21.5677 7.50215C21.0565 6.42077 20.3073 5.43821 19.3629 4.61056C18.4184 3.78291 17.2972 3.12638 16.0632 2.67846C14.8292 2.23054 13.5066 2 12.1709 2C10.8353 2 9.51269 2.23054 8.27869 2.67846C7.04469 3.12638 5.92346 3.78291 4.979 4.61056C4.03454 5.43821 3.28535 6.42077 2.77422 7.50215C2.26308 8.58353 2 9.74254 2 10.913Z" stroke="#707070" stroke-width="4" stroke-linecap="round" stroke-linejoin="round"/>
</svg>
