<svg width="3" height="5" viewBox="0 0 3 5" fill="none" xmlns="http://www.w3.org/2000/svg">
<path d="M1.76214 0.5C1.69366 0.636959 1.62698 0.770484 1.55673 0.9046C1.51624 0.981895 1.52279 1.07911 1.48048 1.1567C1.43574 1.23872 1.37375 1.26163 1.36999 1.37456C1.36768 1.44388 1.36999 1.5137 1.36999 1.58308C1.36999 1.94066 1.4017 2.30432 1.23149 2.61637C1.18952 2.69332 1.18209 2.80337 1.15835 2.88714C1.13712 2.96209 1.06993 3.04135 1.06187 3.11123C1.04912 3.22169 0.923862 3.39097 0.881357 3.50026C0.839922 3.60681 0.854552 3.62198 0.781763 3.7119C0.709135 3.80162 0.631627 3.89512 0.563901 3.9889C0.483248 4.10057 0.501655 4.28887 0.501655 4.42151" stroke="white" stroke-linecap="round"/>
</svg>
