<svg width="27" height="25" viewBox="0 0 27 25" fill="none" xmlns="http://www.w3.org/2000/svg">
<path d="M23.8593 12.8712L13.4769 23.1444L3.09448 12.8712C2.40966 12.2054 1.87024 11.4052 1.51018 10.5209C1.15013 9.63663 0.977239 8.68744 1.0024 7.73311C1.02756 6.77879 1.25023 5.84001 1.65638 4.97589C2.06254 4.11177 2.64337 3.34102 3.36232 2.71219C4.08127 2.08335 4.92276 1.61005 5.83379 1.32209C6.74482 1.03413 7.70566 0.937751 8.65581 1.03901C9.60596 1.14028 10.5248 1.43699 11.3546 1.91047C12.1843 2.38396 12.9069 3.02395 13.4769 3.79016C14.0494 3.02951 14.7728 2.39511 15.602 1.92665C16.4311 1.4582 17.3482 1.16577 18.2956 1.06767C19.2431 0.96957 20.2007 1.06791 21.1084 1.35655C22.0161 1.64518 22.8543 2.11788 23.5708 2.74508C24.2872 3.37228 24.8663 4.14046 25.2719 5.00155C25.6775 5.86264 25.9008 6.79811 25.9279 7.7494C25.955 8.70069 25.7853 9.64732 25.4293 10.5301C25.0734 11.4128 24.5389 12.2126 23.8593 12.8795" stroke="#747474" stroke-width="2" stroke-linecap="round" stroke-linejoin="round"/>
</svg>
