<svg width="3" height="5" viewBox="0 0 3 5" fill="none" xmlns="http://www.w3.org/2000/svg">
<path d="M1.76229 0.5C1.69381 0.636959 1.62713 0.770484 1.55688 0.9046C1.51639 0.981895 1.52295 1.07911 1.48063 1.1567C1.43589 1.23872 1.37391 1.26163 1.37014 1.37456C1.36783 1.44388 1.37014 1.5137 1.37014 1.58308C1.37014 1.94066 1.40185 2.30432 1.23164 2.61637C1.18967 2.69332 1.18224 2.80337 1.1585 2.88714C1.13727 2.96209 1.07009 3.04135 1.06202 3.11123C1.04928 3.22169 0.924014 3.39097 0.881509 3.50026C0.840074 3.60681 0.854704 3.62198 0.781916 3.7119C0.709287 3.80162 0.631779 3.89512 0.564054 3.9889C0.483401 4.10057 0.501808 4.28887 0.501808 4.42151" stroke="white" stroke-linecap="round"/>
</svg>
