<svg width="15" height="5" viewBox="0 0 15 5" fill="none" xmlns="http://www.w3.org/2000/svg">
<path d="M13.962 0.0245464C14.168 -0.0266007 14.3858 0.00282502 14.5709 0.106817C14.756 0.21081 14.8944 0.381525 14.9579 0.584112C15.0214 0.786699 15.0052 1.00588 14.9126 1.19691C14.8199 1.38793 14.6579 1.5364 14.4595 1.612L14.367 1.64116L1.03407 4.97439C0.828017 5.02554 0.610216 4.99611 0.425127 4.89212C0.240039 4.78813 0.101621 4.61741 0.0381337 4.41483C-0.0253542 4.21224 -0.00912459 3.99306 0.0835091 3.80203C0.176143 3.61101 0.338195 3.46254 0.536581 3.38694L0.629078 3.35778L13.962 0.0245464Z" fill="#FF3F3F"/>
</svg>
