<svg width="3" height="4" viewBox="0 0 3 4" fill="none" xmlns="http://www.w3.org/2000/svg">
<path d="M1.66479 0.5C1.66293 0.54371 1.64523 0.586421 1.63577 0.62896C1.63075 0.65158 1.62761 0.675283 1.61965 0.697125C1.61338 0.714356 1.60252 0.729462 1.59939 0.747788C1.59586 0.768459 1.58559 0.783755 1.58097 0.803518C1.57654 0.822406 1.5783 0.841416 1.57682 0.860629C1.57045 0.943429 1.5736 1.02716 1.5736 1.11026C1.5736 1.12812 1.57602 1.14841 1.57267 1.16599C1.56814 1.18978 1.55669 1.20921 1.54872 1.23185C1.53275 1.27727 1.48907 1.31583 1.47918 1.36311C1.46337 1.43866 1.43189 1.51141 1.39766 1.58189C1.37569 1.62712 1.36631 1.6799 1.34147 1.72374C1.31069 1.77806 1.28683 1.84461 1.24037 1.88863C1.2175 1.91029 1.20541 1.94733 1.1851 1.97153C1.16681 1.99333 1.14334 2.00987 1.12454 2.03118C1.11667 2.04009 1.11163 2.05114 1.10358 2.06042C1.09613 2.06902 1.09394 2.0824 1.09299 2.09335C1.09178 2.1072 1.08488 2.11178 1.08101 2.12467C1.07156 2.15618 1.07376 2.18467 1.05384 2.21379C1.03859 2.23608 1.02734 2.26758 1.00778 2.2861C0.982409 2.31014 0.973661 2.34854 0.948598 2.37499C0.931768 2.39276 0.927275 2.41858 0.912443 2.43809C0.893117 2.46352 0.884891 2.49387 0.864544 2.51915C0.832587 2.55886 0.796075 2.5997 0.756079 2.63153C0.747481 2.63838 0.729663 2.65963 0.717621 2.65963C0.693067 2.65963 0.674614 2.60174 0.667879 2.58455C0.652263 2.54471 0.647796 2.50199 0.640935 2.45997C0.637895 2.44135 0.622085 2.4049 0.639093 2.38789C0.660346 2.36664 0.675649 2.34201 0.695053 2.32018C0.712853 2.30016 0.738897 2.29005 0.755388 2.26975C0.775246 2.24531 0.781659 2.2202 0.795918 2.19168C0.803967 2.17559 0.803412 2.15739 0.811117 2.14102C0.81962 2.12295 0.832011 2.10082 0.835758 2.08115C0.839016 2.06404 0.84947 2.03926 0.858326 2.0245C0.873891 1.99855 0.891747 1.97377 0.905304 1.94666C0.910903 1.93546 0.908548 1.9243 0.911292 1.91258C0.914787 1.89764 0.924633 1.88463 0.928794 1.86928C0.946142 1.80531 0.986503 1.75172 1.00479 1.68874C1.01197 1.664 1.02691 1.6447 1.0338 1.61827C1.03822 1.60136 1.05039 1.58952 1.05453 1.57221C1.0571 1.56147 1.06088 1.54858 1.06558 1.53859C1.07604 1.51637 1.07492 1.49004 1.0794 1.46582C1.08313 1.44567 1.09041 1.42569 1.09598 1.40595C1.10189 1.38503 1.10205 1.36349 1.1075 1.34239C1.11356 1.31889 1.11084 1.29387 1.1144 1.27008C1.11737 1.25029 1.12631 1.21542 1.13835 1.19961C1.16056 1.17046 1.16078 1.11675 1.17382 1.08262C1.18727 1.04741 1.18971 1.00886 1.20376 0.973469C1.21178 0.953236 1.21295 0.931901 1.22126 0.911752C1.22879 0.893502 1.23987 0.866718 1.23784 0.846351C1.23769 0.844832 1.20892 0.888256 1.2033 0.897014C1.19531 0.909452 1.19283 0.924386 1.18625 0.937544C1.17926 0.951529 1.16908 0.963572 1.16138 0.977154C1.14009 1.0147 1.12086 1.05619 1.09552 1.09092C1.08374 1.10705 1.0701 1.13099 1.06766 1.15056C1.06492 1.17242 1.06232 1.1955 1.05914 1.2178C1.05259 1.26365 1.02644 1.30681 1.02644 1.35413C1.02644 1.38422 1.02644 1.41431 1.02644 1.44441C1.02644 1.46732 1.01702 1.48036 1.01377 1.50152C1.01197 1.51321 1.00751 1.52432 1.00571 1.53606C1.003 1.55366 0.988293 1.5656 0.982911 1.58235C0.978859 1.59495 0.980201 1.61306 0.972318 1.62357C0.964338 1.63421 0.961904 1.6439 0.95804 1.65627C0.948137 1.68796 0.943995 1.72267 0.929715 1.75253C0.913753 1.7859 0.891045 1.81314 0.881355 1.84948C0.87739 1.86435 0.870156 1.87287 0.863162 1.88633C0.856796 1.89857 0.857492 1.91251 0.851648 1.92478C0.841235 1.94665 0.826184 1.96449 0.823553 1.98949C0.822226 2.00209 0.818215 2.0121 0.815032 2.02404C0.806545 2.05586 0.795623 2.08768 0.785555 2.11914C0.771007 2.16461 0.740314 2.20434 0.736504 2.25386C0.733524 2.2926 0.729953 2.33135 0.725911 2.37016C0.722095 2.40679 0.704614 2.43646 0.697356 2.47194C0.693963 2.48853 0.691157 2.50297 0.680545 2.51662C0.671994 2.52761 0.670679 2.54397 0.661661 2.556C0.63157 2.59612 0.589084 2.61826 0.549051 2.64673C0.529016 2.66098 0.504966 2.6804 0.5 2.70522" stroke="white" stroke-linecap="round"/>
</svg>
