<svg width="31" height="32" viewBox="0 0 31 32" fill="none" xmlns="http://www.w3.org/2000/svg">
<path d="M28.1538 29.1062L19.4359 20.0708M2 12.5413C2 13.9256 2.26308 15.2964 2.77422 16.5753C3.28535 17.8542 4.03454 19.0163 4.979 19.9952C5.92346 20.974 7.04469 21.7505 8.27869 22.2802C9.51269 22.81 10.8353 23.0826 12.1709 23.0826C13.5066 23.0826 14.8292 22.81 16.0632 22.2802C17.2972 21.7505 18.4184 20.974 19.3629 19.9952C20.3073 19.0163 21.0565 17.8542 21.5677 16.5753C22.0788 15.2964 22.3419 13.9256 22.3419 12.5413C22.3419 11.157 22.0788 9.78626 21.5677 8.50733C21.0565 7.2284 20.3073 6.06633 19.3629 5.08748C18.4184 4.10863 17.2972 3.33216 16.0632 2.80241C14.8292 2.27266 13.5066 2 12.1709 2C10.8353 2 9.51269 2.27266 8.27869 2.80241C7.04469 3.33216 5.92346 4.10863 4.979 5.08748C4.03454 6.06633 3.28535 7.2284 2.77422 8.50733C2.26308 9.78626 2 11.157 2 12.5413Z" stroke="#707070" stroke-width="4" stroke-linecap="round" stroke-linejoin="round"/>
</svg>
