<svg width="15" height="17" viewBox="0 0 15 17" fill="none" xmlns="http://www.w3.org/2000/svg">
<path d="M0.024976 12.2967C0.0745447 12.0986 0.1951 11.9256 0.363763 11.8106C0.532425 11.6955 0.737457 11.6464 0.939947 11.6725L1.03578 11.6909L14.3687 15.0241C14.5749 15.0756 14.7537 15.204 14.8684 15.383C14.983 15.562 15.025 15.7781 14.9856 15.987C14.9462 16.1959 14.8284 16.3818 14.6564 16.5067C14.4845 16.6317 14.2712 16.6862 14.0604 16.659L13.9637 16.6407L0.630791 13.3075C0.416417 13.2538 0.232158 13.1171 0.118547 12.9275C0.00493541 12.738 -0.0287228 12.5111 0.024976 12.2967ZM8.79387 0.0878858C5.31565 1.82617 3.33321 4.55275 3.33321 7.49932C3.33321 8.60436 3.77218 9.66413 4.55356 10.4455C5.33494 11.2269 6.39471 11.6659 7.49974 11.6659C8.60478 11.6659 9.66455 11.2269 10.4459 10.4455C11.2273 9.66413 11.6663 8.60436 11.6663 7.49932C11.6663 6.62685 11.5096 5.9927 11.1613 5.24523L11.0205 4.95774L10.7455 4.41858C10.228 3.38528 9.99967 2.47031 9.99967 0.832863C9.99959 0.690874 9.96324 0.551261 9.89405 0.427268C9.82487 0.303276 9.72514 0.199019 9.60435 0.124389C9.48356 0.0497595 9.3457 0.00723261 9.20385 0.000844039C9.06201 -0.00554454 8.92089 0.024417 8.79387 0.0878858Z" fill="#FF3F3F"/>
</svg>
