<svg width="27" height="25" viewBox="0 0 27 25" fill="none" xmlns="http://www.w3.org/2000/svg">
<path d="M23.7054 12.8022L13.3929 23.0157L3.08037 12.8022C2.40017 12.1403 1.86438 11.3447 1.50675 10.4656C1.14912 9.58641 0.977392 8.64274 1.00238 7.69397C1.02738 6.74519 1.24854 5.81187 1.65196 4.95277C2.05538 4.09367 2.63231 3.32741 3.34641 2.70223C4.06052 2.07705 4.89634 1.60651 5.80124 1.32022C6.70613 1.03394 7.6605 0.938113 8.60425 1.03879C9.548 1.13946 10.4607 1.43445 11.2848 1.90518C12.109 2.37591 12.8267 3.01219 13.3929 3.77393C13.9615 3.01772 14.6801 2.387 15.5036 1.92127C16.3272 1.45553 17.238 1.1648 18.1792 1.06727C19.1203 0.969747 20.0714 1.06752 20.9729 1.35447C21.8745 1.64143 22.7072 2.11139 23.4188 2.73493C24.1304 3.35848 24.7056 4.1222 25.1084 4.97829C25.5113 5.83437 25.7331 6.7644 25.76 7.71016C25.7869 8.65592 25.6184 9.59705 25.2648 10.4747C24.9113 11.3523 24.3804 12.1474 23.7054 12.8104" stroke="#747474" stroke-width="2" stroke-linecap="round" stroke-linejoin="round"/>
</svg>
