<svg width="20" height="20" viewBox="0 0 20 20" fill="none" xmlns="http://www.w3.org/2000/svg">
<path d="M10.5 2.82843L14.5 6.82843M13 15.3284H19M16 12.3284V18.3284M1 16.3284H5L15.5 5.82843C15.7626 5.56578 15.971 5.25398 16.1131 4.91082C16.2553 4.56766 16.3284 4.19986 16.3284 3.82843C16.3284 3.45699 16.2553 3.0892 16.1131 2.74604C15.971 2.40287 15.7626 2.09107 15.5 1.82843C15.2374 1.56578 14.9256 1.35744 14.5824 1.2153C14.2392 1.07316 13.8714 1 13.5 1C13.1286 1 12.7608 1.07316 12.4176 1.2153C12.0744 1.35744 11.7626 1.56578 11.5 1.82843L1 12.3284V16.3284Z" stroke="black" stroke-opacity="0.5" stroke-width="2" stroke-linecap="round" stroke-linejoin="round"/>
</svg>
