<svg width="13" height="12" viewBox="0 0 13 12" fill="none" xmlns="http://www.w3.org/2000/svg">
<path d="M11.503 6.39689L6.50555 11.5L1.50814 6.39689C1.17852 6.06617 0.918875 5.66867 0.745569 5.22941C0.572262 4.79015 0.489044 4.31865 0.501155 3.8446C0.513266 3.37055 0.620444 2.90422 0.815939 2.47498C1.01143 2.04574 1.29101 1.66288 1.63707 1.35051C1.98312 1.03814 2.38816 0.803038 2.82667 0.659997C3.26518 0.516956 3.72766 0.469078 4.185 0.51938C4.64234 0.569681 5.08462 0.717071 5.484 0.952268C5.88338 1.18747 6.23119 1.50538 6.50555 1.88598C6.7811 1.50814 7.12932 1.19301 7.52842 0.960305C7.92752 0.727604 8.36892 0.582343 8.82497 0.533614C9.28103 0.484884 9.74193 0.533736 10.1788 0.677111C10.6157 0.820485 11.0192 1.0553 11.3641 1.36685C11.7089 1.6784 11.9877 2.05999 12.1829 2.48773C12.3781 2.91546 12.4856 3.38015 12.4987 3.85269C12.5117 4.32523 12.43 4.79546 12.2587 5.23395C12.0873 5.67244 11.8301 6.06975 11.503 6.40101" stroke="#9C9C9C" stroke-linecap="round" stroke-linejoin="round"/>
</svg>
